<?xml version="1.0" encoding="utf-8"?>
<svg viewBox="0 0 500 500" xmlns="http://www.w3.org/2000/svg" xmlns:bx="https://boxy-svg.com">
  <path d="M 465.513 197.951 C 468.925 195.237 474 197.775 474 202.063 L 474 381 C 474 404.188 455.188 423 432 423 L 68 423 C 44.812 423 26 404.188 26 381 L 26 202.15 C 26 197.775 30.988 195.325 34.488 198.038 C 54.088 213.263 80.074 232.6 169.325 297.438 C 187.788 310.913 218.937 339.263 250 339.088 C 281.238 339.35 313 310.387 330.762 297.438 C 420.013 232.6 445.913 213.175 465.513 197.951 Z M 250 311 C 270.3 311.349 299.525 285.45 314.225 274.775 C 430.338 190.512 439.175 183.163 465.95 162.163 C 471.025 158.224 474 152.1 474 145.625 L 474 129 C 474 105.812 455.188 87 432 87 L 68 87 C 44.812 87 26 105.812 26 129 L 26 145.625 C 26 152.1 28.975 158.137 34.05 162.163 C 60.825 183.075 69.662 190.512 185.775 274.775 C 200.475 285.45 229.7 311.349 250 311 Z" style="fill: rgb(252, 248, 243);" bx:origin="0.5 0.485119"/>
</svg>