<?xml version="1.0" encoding="utf-8"?>
<svg viewBox="0 0 500 500" xmlns="http://www.w3.org/2000/svg" xmlns:bx="https://boxy-svg.com">
  <path d="M 425.999 26 L 74.001 26 C 47.491 26 26 47.49 26 74 L 26 426 C 26 452.509 47.491 474 74.001 474 L 211.251 474 L 211.251 321.69 L 148.249 321.69 L 148.249 250 L 211.251 250 L 211.251 195.36 C 211.251 133.21 248.25 98.88 304.92 98.88 C 332.06 98.88 360.44 103.72 360.44 103.72 L 360.44 164.72 L 329.17 164.72 C 298.36 164.72 288.75 183.84 288.75 203.45 L 288.75 250 L 357.53 250 L 346.531 321.69 L 288.75 321.69 L 288.75 474 L 425.999 474 C 452.509 474 474 452.509 474 426 L 474 74 C 474 47.49 452.509 26 425.999 26 Z" style="fill: rgb(252, 248, 243);" bx:origin="0.5 0.5"/>
</svg>