<?xml version="1.0" encoding="utf-8"?>
<svg viewBox="0 0 500 500" xmlns="http://www.w3.org/2000/svg" xmlns:bx="https://boxy-svg.com">
  <path d="M 250.05 135.115 C 186.485 135.115 135.215 186.386 135.215 249.95 C 135.215 313.515 186.485 364.787 250.05 364.787 C 313.614 364.787 364.885 313.515 364.885 249.95 C 364.885 186.386 313.614 135.115 250.05 135.115 Z M 250.05 324.608 C 208.973 324.608 175.391 291.128 175.391 249.95 C 175.391 208.773 208.873 175.291 250.05 175.291 C 291.227 175.291 324.708 208.773 324.708 249.95 C 324.708 291.128 291.128 324.608 250.05 324.608 Z M 396.368 130.417 C 396.368 145.307 384.375 157.203 369.583 157.203 C 354.691 157.203 342.798 145.208 342.798 130.417 C 342.798 115.625 354.792 103.631 369.583 103.631 C 384.375 103.631 396.368 115.625 396.368 130.417 Z M 472.425 157.602 C 470.726 121.723 462.531 89.941 436.245 63.754 C 410.061 37.569 378.279 29.374 342.399 27.576 C 305.418 25.475 194.58 25.475 157.602 27.576 C 121.823 29.272 90.039 37.469 63.754 63.654 C 37.469 89.84 29.374 121.622 27.576 157.502 C 25.475 194.481 25.475 305.319 27.576 342.298 C 29.272 378.178 37.469 409.961 63.754 436.146 C 90.039 462.331 121.723 470.527 157.602 472.327 C 194.58 474.423 305.418 474.423 342.399 472.327 C 378.279 470.626 410.061 462.432 436.245 436.146 C 462.432 409.961 470.626 378.178 472.425 342.298 C 474.525 305.319 474.525 194.58 472.425 157.602 Z M 424.652 381.976 C 416.856 401.566 401.765 416.656 382.076 424.553 C 352.593 436.245 282.632 433.548 250.05 433.548 C 217.468 433.548 147.407 436.146 118.023 424.553 C 98.436 416.757 83.343 401.666 75.447 381.976 C 63.754 352.492 66.452 282.531 66.452 249.95 C 66.452 217.368 63.854 147.308 75.447 117.923 C 83.243 98.335 98.335 83.243 118.023 75.347 C 147.507 63.654 217.468 66.352 250.05 66.352 C 282.632 66.352 352.693 63.754 382.076 75.347 C 401.666 83.143 416.757 98.234 424.652 117.923 C 436.345 147.407 433.647 217.368 433.647 249.95 C 433.647 282.531 436.345 352.593 424.652 381.976 Z" style="fill: rgb(252, 248, 243);" bx:origin="0.5 0.500112"/>
</svg>